<svg width="20" height="10" viewBox="0 0 20 10" fill="none" xmlns="http://www.w3.org/2000/svg">
<path d="M1.224 2.904C1.224 3.12 1.24 3.308 1.272 3.468C1.312 3.628 1.356 3.764 1.404 3.876C1.452 3.98 1.496 4.064 1.536 4.128C1.584 4.192 1.62 4.244 1.644 4.284C1.196 4.284 0.844 4.172 0.588 3.948C0.332 3.716 0.204 3.364 0.204 2.892C0.204 2.492 0.304 2.116 0.504 1.764C0.712 1.412 0.988 1.108 1.332 0.852C1.684 0.588 2.092 0.38 2.556 0.228C3.028 0.0759995 3.528 -7.15256e-07 4.056 -7.15256e-07C4.528 -7.15256e-07 4.936 0.0599995 5.28 0.18C5.632 0.292 5.92 0.448 6.144 0.648C6.376 0.848 6.548 1.076 6.66 1.332C6.772 1.588 6.828 1.852 6.828 2.124C6.828 2.428 6.748 2.732 6.588 3.036C6.428 3.332 6.196 3.584 5.892 3.792C6.508 3.856 7 4.1 7.368 4.524C7.744 4.948 7.932 5.54 7.932 6.3C7.932 6.556 7.904 6.852 7.848 7.188C7.792 7.516 7.688 7.832 7.536 8.136C7.392 8.432 7.188 8.684 6.924 8.892C6.66 9.1 6.324 9.204 5.916 9.204C5.74 9.204 5.572 9.18 5.412 9.132C5.252 9.092 5.108 9.032 4.98 8.952C4.86 8.864 4.764 8.756 4.692 8.628C4.62 8.492 4.584 8.34 4.584 8.172C4.584 8.124 4.588 8.06 4.596 7.98C4.604 7.892 4.616 7.82 4.632 7.764C4.744 7.94 4.884 8.064 5.052 8.136C5.22 8.2 5.376 8.232 5.52 8.232C5.72 8.232 5.884 8.176 6.012 8.064C6.148 7.952 6.252 7.808 6.324 7.632C6.396 7.456 6.444 7.264 6.468 7.056C6.5 6.84 6.516 6.628 6.516 6.42C6.516 5.66 6.368 5.112 6.072 4.776C5.784 4.44 5.38 4.272 4.86 4.272C4.764 4.272 4.644 4.276 4.5 4.284C4.356 4.292 4.216 4.304 4.08 4.32V9H2.784V1.308L4.08 1.128V3.84H4.248C4.472 3.84 4.68 3.788 4.872 3.684C5.072 3.572 5.244 3.428 5.388 3.252C5.532 3.076 5.644 2.884 5.724 2.676C5.804 2.46 5.844 2.248 5.844 2.04C5.844 1.568 5.684 1.184 5.364 0.887999C5.044 0.583999 4.568 0.431999 3.936 0.431999C3.592 0.431999 3.256 0.483999 2.928 0.588C2.6 0.684 2.308 0.836 2.052 1.044C1.804 1.244 1.604 1.5 1.452 1.812C1.3 2.124 1.224 2.488 1.224 2.904ZM13.2552 8.04L14.8032 0.0599992H15.6912L17.4072 8.04L18.9552 0.0599992H19.6392L17.7432 9H16.4112L14.9712 2.496L13.5912 9H12.2592L10.3512 0.684C10.0472 0.684 9.79122 0.74 9.58322 0.852C9.37522 0.956 9.20722 1.1 9.07922 1.284C8.95122 1.46 8.85522 1.664 8.79122 1.896C8.73522 2.12 8.70722 2.352 8.70722 2.592C8.70722 2.936 8.75522 3.244 8.85122 3.516C8.94722 3.788 9.08722 4.04 9.27122 4.272C9.11122 4.272 8.95122 4.248 8.79122 4.2C8.63122 4.152 8.48722 4.068 8.35922 3.948C8.23122 3.828 8.12722 3.668 8.04722 3.468C7.96722 3.26 7.92722 3 7.92722 2.688C7.92722 2.328 7.99522 1.984 8.13122 1.656C8.26722 1.328 8.46722 1.044 8.73122 0.804C8.99522 0.556 9.31922 0.359999 9.70322 0.215999C10.0872 0.0719993 10.5272 -7.15256e-07 11.0232 -7.15256e-07C11.1112 -7.15256e-07 11.1952 0.00399947 11.2752 0.0119998C11.3632 0.0199997 11.4512 0.0319996 11.5392 0.0479994L13.2552 8.04Z" fill="white"/>
</svg>
