<svg width="128" height="128" viewBox="0 0 128 128" fill="none" xmlns="http://www.w3.org/2000/svg">
<path d="M73.375 128H52.47L51.122 111.635C46.405 110.339 41.942 108.35 37.821 105.704L25.83 115.958L11.07 101.032L21.558 88.503C19.123 84.21 17.359 79.603 16.297 74.77L0.651993 73.45V52.374L16.845 51.007C18.124 46.237 20.097 41.718 22.725 37.539L12.588 25.43L27.356 10.507L39.76 21.117C43.985 18.671 48.533 16.893 53.32 15.816L54.625 0H75.529L76.877 16.367C81.594 17.662 86.057 19.652 90.179 22.297L102.169 12.047L116.929 26.968L106.44 39.497C108.869 43.783 110.632 48.391 111.698 53.231L127.348 54.545V75.63L111.153 76.991C109.868 81.769 107.895 86.288 105.272 90.459L115.412 102.569L100.643 117.492L88.235 106.884C84.004 109.332 79.455 111.111 74.678 112.184L73.375 128ZM56.154 124H69.691L70.937 108.854L72.428 108.568C77.754 107.544 82.786 105.58 87.388 102.73L88.63 101.96L100.415 112.035L110.006 102.345L100.29 90.741L101.128 89.494C104.166 84.973 106.35 79.98 107.618 74.653L107.953 73.245L123.347 71.952V58.224L108.354 56.965L108.072 55.47C107.055 50.078 105.11 44.984 102.291 40.329L101.551 39.106L111.525 27.192L101.941 17.503L90.464 27.315L89.199 26.446C84.726 23.374 79.79 21.169 74.527 19.89L73.125 19.549L71.846 4H58.309L57.058 19.146L55.568 19.433C50.23 20.461 45.197 22.425 40.608 25.272L39.365 26.043L27.582 15.965L17.993 25.654L27.707 37.257L26.869 38.504C23.824 43.035 21.641 48.027 20.381 53.341L20.047 54.751L4.65199 56.05V69.772L19.643 71.037L19.924 72.533C20.934 77.913 22.879 83.006 25.705 87.671L26.446 88.894L16.473 100.808L26.057 110.499L37.536 100.685L38.802 101.554C43.273 104.626 48.207 106.832 53.47 108.112L54.873 108.453L56.154 124Z" fill="#07F985"/>
<path d="M64 92.173C47.978 92.173 34.941 79.009 34.941 62.828C34.941 46.647 47.978 33.484 64 33.484V37.484C50.183 37.484 38.941 48.853 38.941 62.828C38.941 76.804 50.182 88.173 64 88.173C77.815 88.173 89.055 76.804 89.055 62.828H93.055C93.055 79.009 80.021 92.173 64 92.173Z" fill="#07F985"/>
<path d="M57.199 48.042L54.356 45.228L62.294 37.207L54.355 29.183L57.199 26.369L67.921 37.208L57.199 48.042Z" fill="#07F985"/>
</svg>
